<?xml version="1.0" encoding="UTF-8" standalone="no"?>
<svg
   xmlns:dc="http://purl.org/dc/elements/1.1/"
   xmlns:cc="http://creativecommons.org/ns#"
   xmlns:rdf="http://www.w3.org/1999/02/22-rdf-syntax-ns#"
   xmlns:svg="http://www.w3.org/2000/svg"
   xmlns="http://www.w3.org/2000/svg"
   xmlns:sodipodi="http://sodipodi.sourceforge.net/DTD/sodipodi-0.dtd"
   xmlns:inkscape="http://www.inkscape.org/namespaces/inkscape"
   id="svg"
   version="1.1"
   width="379.00418"
   height="72.767937"
   viewBox="0 0 379.00418 72.767937"
   sodipodi:docname="logo.svg"
   inkscape:version="1.0.1 (3bc2e813f5, 2020-09-07)"
   inkscape:export-filename="C:\Users\ogden9\Documents\Career\Portfolio\VoteNow\front_end\src\assets\logo_navbar.png"
   inkscape:export-xdpi="75.988602"
   inkscape:export-ydpi="75.988602">
  <metadata
     id="metadata17">
    <rdf:RDF>
      <cc:Work
         rdf:about="">
        <dc:format>image/svg+xml</dc:format>
        <dc:type
           rdf:resource="http://purl.org/dc/dcmitype/StillImage" />
        <dc:title></dc:title>
      </cc:Work>
    </rdf:RDF>
  </metadata>
  <defs
     id="defs15" />
  <sodipodi:namedview
     pagecolor="#ffffff"
     bordercolor="#666666"
     borderopacity="1"
     objecttolerance="10"
     gridtolerance="10"
     guidetolerance="10"
     inkscape:pageopacity="0"
     inkscape:pageshadow="2"
     inkscape:window-width="1920"
     inkscape:window-height="1137"
     id="namedview13"
     showgrid="false"
     inkscape:snap-bbox="true"
     inkscape:snap-bbox-edge-midpoints="true"
     inkscape:zoom="2"
     inkscape:cx="128.94386"
     inkscape:cy="90.627864"
     inkscape:window-x="-8"
     inkscape:window-y="-8"
     inkscape:window-maximized="1"
     inkscape:current-layer="layer4" />
  <g
     inkscape:groupmode="layer"
     id="layer1"
     inkscape:label="votenow"
     transform="translate(-12.53281,-0.89174985)"
     style="display:inline">
    <g
       inkscape:groupmode="layer"
       id="layer6"
       inkscape:label="votenow.positive"
       style="display:inline">
      <path
         d="m 92.482,21.317717 c 0.472,1.115 0.737,1.727 1.027,2.375 0.165,0.366 0.496,1.154 0.737,1.75 0.241,0.595 0.542,1.308 0.669,1.583 0.353999,0.767 0.767999,1.732 1.999999,4.667 0.423,1.008 0.835,1.983 0.916,2.166 0.08,0.184 0.274001,0.634 0.430001,1 0.156,0.367 0.416,0.967 0.578,1.334 0.163,0.366 0.756,1.754 1.319,3.083 0.564,1.329 1.091,2.567 1.172,2.75 0.213,0.482 0.546,1.261 1.422,3.333 1.017,2.407 1.232,2.899 2.17,4.993 l 0.221,0.493 0.194,-0.493 c 0.108,-0.271 0.296,-0.718 0.419,-0.993 0.647,-1.445 0.911,-2.076 0.911,-2.176 0,-0.062 0.262,-0.673 0.583,-1.358 0.321,-0.685 0.586,-1.295 0.589,-1.356 0.003,-0.06 0.151,-0.41 0.328,-0.776 0.177,-0.367 0.324,-0.723 0.327,-0.792 0.003,-0.068 0.225,-0.593 0.492,-1.166 0.268,-0.573 0.684,-1.53 0.924,-2.126 0.47,-1.162 0.549,-1.347 1.059,-2.5 0.647,-1.463 0.85,-1.935 1.538,-3.583 0.383,-0.917 0.842,-2.004 1.02,-2.417 0.179,-0.412 0.389,-0.9 0.467,-1.083 0.078,-0.183 0.294,-0.671 0.478,-1.083 0.185,-0.413 0.533,-1.238 0.773,-1.834 0.457,-1.134 0.481,-1.191 1.133,-2.666 0.223,-0.505 0.66,-1.535 0.972,-2.29 l 0.567,-1.373 4.636,-0.002 4.636,-0.002 -0.113,0.375 c -0.062,0.206 -0.405,0.986 -0.761,1.734 -0.357,0.747 -0.648,1.401 -0.648,1.454 0,0.053 -0.268,0.679 -0.596,1.392 -0.594,1.294 -0.715,1.563 -1.401,3.128 -0.201,0.459 -0.499,1.134 -0.662,1.5 -0.164,0.367 -0.413,0.929 -0.554,1.25 -0.142,0.321 -0.527,1.161 -0.856,1.868 -0.329,0.706 -0.598,1.318 -0.598,1.36 0,0.068 -0.784,1.836 -1.414,3.189 -0.128,0.275 -0.395,0.875 -0.593,1.333 -0.579,1.336 -0.768,1.758 -1.398,3.129 -0.327,0.712 -0.595,1.327 -0.595,1.365 0,0.039 -0.3,0.707 -0.667,1.486 -0.366,0.779 -0.666,1.452 -0.666,1.495 0,0.068 -0.58,1.367 -1.424,3.192 -0.41,0.887 -1.252,2.789 -2.028,4.583 -0.417,0.963 -0.814,1.825 -0.882,1.917 -0.069,0.092 -0.181,0.348 -0.249,0.57 -0.069,0.222 -0.37,0.934 -0.67,1.583 -0.301,0.649 -0.74,1.612 -0.978,2.139 l -0.431,0.958 h -3.928 -3.927 l -0.252,-0.625 c -0.374,-0.928 -0.979,-2.296 -1.873,-4.237 -0.282,-0.611 -0.561,-1.305 -0.62,-1.541 -0.059,-0.237 -0.175,-0.43 -0.256,-0.43 -0.082,0 -0.149001,-0.089 -0.149001,-0.198 0,-0.108 -0.143,-0.502 -0.318,-0.875 -0.377,-0.801 -1.113,-2.439 -1.465,-3.261 -0.281,-0.656 -0.727,-1.657 -1.206999,-2.708 -0.177,-0.39 -0.619,-1.383 -0.981,-2.208 -0.361,-0.825 -0.86,-1.95 -1.108,-2.5 -0.248,-0.55 -0.585,-1.3 -0.75,-1.667 -0.165,-0.367 -0.534,-1.173 -0.819,-1.792 -0.285,-0.619 -0.519,-1.166 -0.519,-1.216 0,-0.05 -0.269,-0.669 -0.598,-1.375 -0.329,-0.706 -0.714,-1.546 -0.855,-1.867 -0.142,-0.321 -0.391,-0.883 -0.554,-1.25 -0.308,-0.69 -0.791,-1.786 -1.359,-3.083 -0.181,-0.413 -0.463,-1.05 -0.626,-1.417 -0.163,-0.367 -0.427,-0.967 -0.585,-1.333 -0.303,-0.7 -0.59,-1.345 -1.336,-3 -0.902,-2.003 -1.057,-2.351 -1.485,-3.312 -0.239,-0.538 -0.435,-1.007 -0.435,-1.042 0,-0.035 2.082,-0.063 4.626,-0.063 h 4.626 l 0.23,0.542"
         id="path884"
         style="fill:#3c3b6e;fill-opacity:1" />
      <path
         id="path880"
         style="fill:#3c3b6e;fill-opacity:1"
         d="M 139.33789 19.421875 C 137.98989 19.42375 136.64427 19.471047 136.13477 19.560547 C 134.32077 19.879547 132.1898 20.471047 130.9668 20.998047 C 129.8338 21.486047 128.88378 21.945969 128.80078 22.042969 C 128.75478 22.096969 128.53078 22.232703 128.30078 22.345703 C 126.52278 23.214703 123.80752 25.674844 122.10352 27.964844 C 120.28252 30.410844 119.17478 33.046797 118.42578 36.716797 C 118.19078 37.870797 118.1995 43.215797 118.4375 44.216797 C 119.1735 47.302797 119.34938 47.844984 120.23438 49.708984 C 121.60337 52.594984 124.27094 55.715078 126.96094 57.580078 C 128.23994 58.467078 130.93189 59.884766 131.33789 59.884766 C 131.46489 59.884766 131.63761 59.953109 131.72461 60.037109 C 131.92161 60.228109 133.57778 60.696203 134.80078 60.908203 C 135.30478 60.995203 136.06905 61.143281 136.49805 61.238281 C 137.48605 61.455281 141.47559 61.458188 142.18359 61.242188 C 142.47759 61.153187 143.12977 61.030703 143.63477 60.970703 C 145.14477 60.790703 146.53177 60.324031 148.88477 59.207031 C 152.35877 57.556031 155.32773 54.906797 157.55273 51.466797 C 157.97973 50.806797 159.13477 48.417359 159.13477 48.193359 C 159.13477 48.096359 159.24105 47.780187 159.37305 47.492188 C 160.74705 44.473188 160.8008 36.411797 159.4668 33.466797 C 159.3838 33.283797 159.11795 32.645781 158.87695 32.050781 C 158.32295 30.686781 157.27261 28.716797 157.09961 28.716797 C 157.02661 28.716797 156.9668 28.63325 156.9668 28.53125 C 156.9668 27.99625 153.36787 24.299703 151.79688 23.220703 C 149.15488 21.407703 145.93678 20.129781 142.55078 19.550781 C 142.03628 19.462781 140.68589 19.42 139.33789 19.421875 z M 138.79492 27.693359 C 141.17345 27.68675 143.81511 28.262797 145.34961 29.216797 C 145.79261 29.491797 146.22083 29.716797 146.29883 29.716797 C 146.37583 29.716797 146.46509 29.775703 146.49609 29.845703 C 146.52609 29.916703 146.90489 30.259328 147.33789 30.611328 C 151.17389 33.722328 152.57106 41.009813 150.28906 46.007812 C 150.11206 46.396813 149.9668 46.782187 149.9668 46.867188 C 149.9668 46.952188 149.9108 47.048125 149.8418 47.078125 C 149.7728 47.109125 149.43013 47.572375 149.07812 48.109375 C 146.40412 52.197375 140.93878 54.121313 136.05078 52.695312 C 134.99078 52.386313 133.50878 51.766922 133.30078 51.544922 C 133.25478 51.495922 132.8228 51.206344 132.3418 50.902344 C 130.5608 49.775344 128.94344 47.543406 128.02344 44.941406 L 127.38477 43.134766 L 127.38477 40.285156 C 127.38477 38.433156 127.44931 37.353172 127.57031 37.201172 C 127.67331 37.073172 127.85275 36.563359 127.96875 36.068359 C 128.08475 35.574359 128.2793 34.973375 128.4043 34.734375 C 128.5293 34.495375 128.63181 34.244734 128.63281 34.177734 C 128.64281 32.922734 133.08341 28.886359 134.94141 28.443359 C 135.18441 28.385359 135.46069 28.277125 135.55469 28.203125 C 135.64969 28.130125 136.09969 27.995344 136.55469 27.902344 C 137.23819 27.763094 138.00208 27.695562 138.79492 27.693359 z "
         transform="translate(12.53281,0.89174985)" />
      <path
         d="m 206.752,21.150717 c 0.051,0.206 0.071,2.025 0.045,4.042 l -0.047,3.666 -5.041,0.044 -5.041,0.045 -0.042,16.372 -0.043,16.373 -4.291,0.044 -4.292,0.045 v -16.42 -16.419 h -5.083 -5.084 v -4.084 -4.083 h 14.414 14.413 l 0.092,0.375"
         id="path886"
         style="fill:#3c3b6e;fill-opacity:1" />
      <path
         d="m 237.628,24.900717 0.045,4.042 h -8.253 -8.253 v 4.166 4.167 h 6.253 6.253 l -0.045,3.958 -0.045,3.959 -6.208,0.043 -6.208,0.044 v 4.248 4.248 h 8.586 8.586 l -0.044,3.958 -0.045,3.959 h -13 -13 l -0.043,-20.25 c -0.023,-11.138 -0.007,-20.345 0.037,-20.46 0.063,-0.166 2.694,-0.2 12.71,-0.166 l 12.629,0.042 0.045,4.042"
         id="path888"
         style="fill:#3c3b6e;fill-opacity:1" />
      <path
         d="m 254.45,23.302717 c 1.081,1.389 2.229,2.838 2.55,3.218 0.321,0.38 0.733,0.902 0.917,1.158 0.183,0.257 0.439,0.579 0.57,0.715 0.13,0.137 0.562,0.672 0.96,1.19 0.398,0.518 0.905,1.167 1.127,1.442 0.349,0.433 3.377,4.258 4.468,5.643 0.206,0.262 0.624,0.787 0.928,1.167 0.305,0.379 0.717,0.899 0.917,1.154 0.2,0.255 0.442,0.555 0.538,0.666 0.523,0.609 4.309,5.399 4.468,5.653 0.103,0.165 0.244,0.3 0.313,0.3 0.069,0 0.144,-5.568 0.168,-12.375 l 0.043,-12.375 h 4.333 4.333 v 20.417 20.417 l -3.369,0.045 -3.368,0.045 -0.294,-0.462 c -0.162,-0.254 -0.341,-0.499 -0.399,-0.545 -0.058,-0.046 -0.641,-0.758 -1.296,-1.583 -0.655,-0.825 -1.41,-1.763 -1.677,-2.084 -0.268,-0.321 -0.72,-0.883 -1.005,-1.25 -0.706,-0.909 -1.262,-1.602 -2.342,-2.916 -0.504,-0.615 -1.141,-1.404 -1.416,-1.755 -0.556,-0.709 -3.997,-4.999 -4.743,-5.912 -0.262,-0.321 -1.31,-1.633 -2.329,-2.917 -1.018,-1.283 -2.019,-2.533 -2.223,-2.778 -0.205,-0.245 -0.535,-0.657 -0.734,-0.917 -0.199,-0.259 -0.627,-0.771 -0.951,-1.138 l -0.59,-0.667 -0.007,12.461 -0.007,12.462 -4.291,-0.045 -4.292,-0.044 -0.042,-20.459 -0.043,-20.458 h 3.409 3.408 l 1.968,2.527"
         id="path890"
         style="fill:#b42033;fill-opacity:1" />
      <path
         id="path882"
         style="fill:#b42033;fill-opacity:1"
         d="M 295.40625 19.449219 C 293.45013 19.456969 291.57108 19.552016 291.39258 19.728516 C 291.30558 19.814516 291.0578 19.884766 290.8418 19.884766 C 290.0858 19.884766 285.3138 21.633109 284.9668 22.037109 C 284.9208 22.090109 284.51922 22.321781 284.07422 22.550781 C 283.62822 22.779781 283.22764 23.060781 283.18164 23.175781 C 283.13564 23.289781 283.01887 23.384766 282.92188 23.384766 C 282.77188 23.384766 280.95667 24.908703 280.13867 25.720703 C 278.90667 26.942703 276.91703 29.783141 276.70703 30.619141 C 276.64703 30.856141 276.54638 31.050781 276.48438 31.050781 C 276.27638 31.050781 275.28648 33.821141 274.89648 35.494141 C 274.13648 38.763141 274.35297 44.918656 275.29297 46.722656 C 275.36597 46.862656 275.48078 47.238641 275.55078 47.556641 C 275.66678 48.089641 276.69488 50.357766 277.17188 51.134766 C 278.24988 52.891766 278.43977 53.147359 279.63477 54.443359 C 281.88377 56.883359 284.05048 58.467516 286.52148 59.478516 C 287.08648 59.710516 287.70077 59.969641 287.88477 60.056641 C 291.55777 61.796641 299.5438 61.796641 303.2168 60.056641 C 303.3998 59.969641 304.01027 59.710469 304.57227 59.480469 C 305.50827 59.097469 307.60278 57.962469 307.80078 57.730469 C 307.84678 57.676469 308.20752 57.412531 308.60352 57.144531 C 311.65552 55.073531 315.9668 48.750703 315.9668 46.345703 C 315.9668 46.128703 316.04372 45.87425 316.13672 45.78125 C 316.87172 45.04525 316.86009 36.958797 316.12109 34.716797 C 315.43009 32.623797 314.05834 29.520109 313.77734 29.412109 C 313.69834 29.381109 313.63381 29.269109 313.63281 29.162109 C 313.62881 28.713109 311.47644 26.181047 309.77344 24.623047 C 308.55544 23.508047 306.97778 22.432141 305.55078 21.744141 C 303.51578 20.763141 303.57977 20.787781 301.88477 20.300781 C 301.05977 20.064781 300.15977 19.790359 299.88477 19.693359 C 299.39577 19.519859 297.36237 19.441469 295.40625 19.449219 z M 294.38086 27.763672 C 296.10844 27.719422 298.52734 27.908094 299.37109 28.214844 C 300.67809 28.690844 302.31789 29.559375 302.71289 29.984375 C 302.80689 30.085375 303.16672 30.376812 303.51172 30.632812 C 308.06372 33.992812 308.94189 43.068609 305.21289 48.224609 C 304.04389 49.839609 301.9473 51.611703 300.7793 51.970703 C 300.5623 52.037703 300.3088 52.146844 300.2168 52.214844 C 298.6958 53.337844 292.42977 53.346562 290.88477 52.226562 C 290.79277 52.160562 290.45477 52.002 290.13477 51.875 C 289.81377 51.749 289.47577 51.586672 289.38477 51.513672 C 289.29277 51.441672 288.78486 51.055297 288.25586 50.654297 C 286.75286 49.514297 285.47487 47.905781 284.79688 46.300781 C 284.60388 45.841781 284.37983 45.317766 284.29883 45.134766 C 283.30383 42.884766 283.30383 37.491359 284.29883 35.568359 C 284.37583 35.421359 284.64348 34.850781 284.89648 34.300781 C 285.14848 33.750781 285.47414 33.141312 285.61914 32.945312 C 285.76514 32.749312 285.99677 32.423703 286.13477 32.220703 C 287.40877 30.336703 290.4318 28.419672 292.9668 27.888672 C 293.3053 27.817922 293.805 27.778422 294.38086 27.763672 z "
         transform="translate(12.53281,0.89174985)" />
      <path
         d="m 342.886,21.858717 c 0.176,0.55 0.42,1.23 0.543,1.511 0.123,0.281 0.274,0.824 0.335,1.208 0.062,0.384 0.177,0.698 0.257,0.698 0.08,0 0.145,0.094 0.145,0.208 -10e-4,0.223 0.771,2.819 1.003,3.375 0.077,0.184 0.338,1.009 0.581,1.834 0.242,0.825 0.497,1.612 0.566,1.75 0.069,0.137 0.33,0.925 0.581,1.75 0.25,0.825 0.514,1.612 0.587,1.75 0.072,0.137 0.228,0.662 0.345,1.166 0.118,0.504 0.271,0.992 0.34,1.084 0.069,0.091 0.181,0.429 0.248,0.75 0.067,0.32 0.18,0.658 0.253,0.75 0.072,0.091 0.216,0.504 0.321,0.916 0.104,0.413 0.255,0.9 0.335,1.084 0.079,0.183 0.315,0.878 0.524,1.544 0.398,1.272 0.51,1.324 0.791,0.372 0.245,-0.832 0.673,-2.026 0.866,-2.416 0.091,-0.184 0.234,-0.559 0.319,-0.834 0.249,-0.802 0.67,-1.972 0.841,-2.333 0.165,-0.35 0.56,-1.433 0.88,-2.417 0.104,-0.321 0.239,-0.621 0.3,-0.666 0.061,-0.046 0.167,-0.346 0.234,-0.667 0.068,-0.321 0.265,-0.898 0.438,-1.283 0.173,-0.384 0.314,-0.8 0.314,-0.925 0,-0.124 0.062,-0.297 0.138,-0.384 0.076,-0.087 0.455,-1.058 0.844,-2.158 0.388,-1.1 0.814,-2.225 0.945,-2.5 0.131,-0.275 0.286,-0.744 0.344,-1.042 0.057,-0.298 0.161,-0.541 0.229,-0.541 0.069,0 0.172,-0.231 0.228,-0.514 0.056,-0.282 0.205,-0.751 0.329,-1.041 0.125,-0.291 0.393,-0.979 0.597,-1.529 0.203,-0.55 0.428,-1.112 0.501,-1.25 0.109,-0.207 0.706,-0.257 3.49,-0.295 l 3.359,-0.045 0.184,0.462 c 0.101,0.254 0.287,0.661 0.414,0.904 0.128,0.243 0.232,0.532 0.232,0.642 0,0.109 0.101,0.435 0.225,0.724 0.424,0.99 0.941,2.365 0.941,2.503 0,0.076 0.102,0.375 0.225,0.663 0.425,0.991 0.942,2.365 0.942,2.504 0,0.076 0.101,0.374 0.225,0.663 0.436,1.017 0.942,2.367 0.947,2.529 0.003,0.089 0.151,0.463 0.328,0.83 0.177,0.366 0.325,0.74 0.328,0.83 0.005,0.161 0.511,1.511 0.947,2.528 0.124,0.289 0.225,0.588 0.225,0.664 0,0.138 0.517,1.513 0.942,2.503 0.123,0.289 0.227,0.626 0.23,0.75 0.003,0.124 0.151,0.525 0.328,0.891 0.177,0.367 0.325,0.794 0.328,0.949 0.003,0.155 0.073,0.324 0.157,0.375 0.083,0.052 0.247,0.469 0.365,0.927 0.202,0.789 0.483,1.127 0.483,0.58 0,-0.138 0.068,-0.382 0.151,-0.541 0.179,-0.344 1.523,-4.56 1.519,-4.764 -0.002,-0.078 0.102,-0.378 0.229,-0.667 0.128,-0.289 0.434,-1.2 0.679,-2.025 0.246,-0.825 0.511,-1.65 0.589,-1.834 0.078,-0.183 0.346,-1.008 0.596,-1.833 0.25,-0.825 0.509,-1.575 0.574,-1.667 0.066,-0.091 0.214,-0.579 0.33,-1.083 0.116,-0.504 0.267,-0.992 0.336,-1.083 0.069,-0.092 0.181,-0.427 0.249,-0.745 0.068,-0.318 0.182,-0.693 0.254,-0.833 0.071,-0.141 0.48,-1.381 0.909,-2.756 0.429,-1.375 0.849,-2.63 0.933,-2.789 0.084,-0.159 0.152,-0.403 0.152,-0.542 0,-0.219 0.604,-0.252 4.602,-0.252 h 4.602 l -0.117,0.625 c -0.064,0.344 -0.176,0.7 -0.249,0.792 -0.073,0.091 -0.187,0.429 -0.253,0.75 -0.066,0.321 -0.213,0.808 -0.327,1.083 -0.113,0.275 -0.412,1.175 -0.664,2 -0.252,0.825 -0.522,1.65 -0.601,1.833 -0.079,0.184 -0.218,0.596 -0.31,0.917 -0.226,0.793 -0.683,2.176 -0.852,2.583 -0.077,0.184 -0.345,1.009 -0.597,1.834 -0.253,0.825 -0.515,1.612 -0.584,1.75 -0.183,0.365 -0.985,3.047 -0.984,3.291 10e-4,0.115 -0.074,0.209 -0.166,0.209 -0.091,0 -0.166,0.108 -0.166,0.239 0,0.28 -0.791,2.89 -0.99,3.266 -0.074,0.141 -0.19,0.516 -0.257,0.833 -0.067,0.318 -0.218,0.803 -0.335,1.078 -0.117,0.275 -0.679,1.963 -1.249,3.75 -0.57,1.788 -1.1,3.4 -1.178,3.584 -0.078,0.183 -0.217,0.595 -0.309,0.916 -0.219,0.77 -0.678,2.165 -0.849,2.584 -0.075,0.183 -0.343,1.008 -0.595,1.833 -0.252,0.825 -0.516,1.612 -0.586,1.75 -0.07,0.137 -0.346,0.962 -0.612,1.833 l -0.483,1.584 -3.191,0.045 -3.192,0.045 -0.11,-0.462 c -0.061,-0.254 -0.162,-0.537 -0.226,-0.628 -0.063,-0.092 -0.322,-0.767 -0.575,-1.5 -0.252,-0.734 -0.527,-1.484 -0.611,-1.667 -0.152,-0.332 -1.486,-3.898 -1.933,-5.167 -0.129,-0.366 -0.343,-0.903 -0.477,-1.192 -0.133,-0.288 -0.242,-0.587 -0.242,-0.663 0,-0.134 -0.499,-1.466 -0.929,-2.478 -0.117,-0.275 -0.267,-0.72 -0.334,-0.989 -0.067,-0.269 -0.223,-0.681 -0.345,-0.917 -0.123,-0.235 -0.224,-0.554 -0.225,-0.709 0,-0.155 -0.067,-0.323 -0.149,-0.374 -0.081,-0.05 -0.197,-0.298 -0.258,-0.551 -0.107,-0.451 -0.603,-1.805 -1.022,-2.793 -0.117,-0.275 -0.266,-0.725 -0.332,-1 -0.065,-0.275 -0.172,-0.575 -0.238,-0.667 -0.065,-0.092 -0.33,-0.767 -0.588,-1.5 -0.706,-2.007 -0.74,-2.06 -1.012,-1.57 -0.123,0.222 -0.226,0.504 -0.229,0.628 -0.003,0.124 -0.108,0.461 -0.233,0.75 -0.125,0.289 -0.434,1.088 -0.687,1.775 -0.253,0.688 -0.523,1.4 -0.601,1.584 -0.187,0.437 -0.63,1.695 -0.834,2.366 -0.089,0.293 -0.272,0.743 -0.405,1 -0.134,0.257 -0.244,0.541 -0.245,0.63 -10e-4,0.146 -0.311,0.993 -0.918,2.504 -0.111,0.275 -0.37,0.987 -0.578,1.583 -0.207,0.596 -0.474,1.308 -0.594,1.583 -0.12,0.275 -0.272,0.725 -0.338,1 -0.065,0.275 -0.171,0.575 -0.234,0.667 -0.064,0.092 -0.287,0.654 -0.496,1.25 -0.209,0.596 -0.475,1.308 -0.591,1.583 -0.117,0.275 -0.651,1.721 -1.188,3.212 l -0.975,2.712 -3.17,-0.045 -3.169,-0.045 -0.221,-0.75 c -0.122,-0.413 -0.284,-0.9 -0.36,-1.084 -0.17,-0.408 -0.627,-1.794 -0.852,-2.583 -0.091,-0.321 -0.234,-0.733 -0.317,-0.917 -0.083,-0.183 -0.226,-0.596 -0.317,-0.916 -0.219,-0.767 -0.678,-2.164 -0.85,-2.584 -0.171,-0.419 -0.63,-1.816 -0.849,-2.583 -0.092,-0.321 -0.23,-0.733 -0.308,-0.917 -0.078,-0.183 -0.342,-0.971 -0.587,-1.75 -0.245,-0.779 -0.509,-1.566 -0.586,-1.75 -0.077,-0.183 -0.341,-1.008 -0.586,-1.833 -0.246,-0.825 -0.547,-1.725 -0.668,-2 -0.122,-0.275 -0.274,-0.782 -0.337,-1.127 -0.064,-0.345 -0.176,-0.664 -0.25,-0.709 -0.073,-0.045 -0.184,-0.382 -0.245,-0.747 -0.062,-0.366 -0.174,-0.703 -0.248,-0.749 -0.075,-0.046 -0.228,-0.478 -0.341,-0.959 -0.113,-0.482 -0.262,-0.951 -0.331,-1.042 -0.069,-0.092 -0.18,-0.43 -0.247,-0.75 -0.067,-0.321 -0.178,-0.659 -0.247,-0.75 -0.069,-0.092 -0.222,-0.58 -0.339,-1.084 -0.117,-0.504 -0.261,-0.954 -0.321,-1 -0.106,-0.081 -0.516,-1.376 -0.882,-2.791 -0.101,-0.39 -0.246,-0.709 -0.322,-0.709 -0.077,0 -0.139,-0.108 -0.139,-0.239 0,-0.268 -0.783,-2.87 -0.981,-3.261 -0.07,-0.137 -0.333,-0.925 -0.586,-1.75 -0.252,-0.825 -0.523,-1.65 -0.602,-1.833 -0.079,-0.183 -0.192,-0.521 -0.25,-0.75 -0.059,-0.229 -0.144,-0.549 -0.19,-0.711 -0.077,-0.277 0.191,-0.292 4.548,-0.25 l 4.629,0.044 0.318,1"
         id="path892"
         style="fill:#b42033;fill-opacity:1" />
    </g>
    <g
       inkscape:groupmode="layer"
       id="layer5"
       inkscape:label="votenow.negative" />
  </g>
  <g
     inkscape:groupmode="layer"
     id="layer2"
     inkscape:label="capital"
     transform="translate(-12.53281,-0.89174985)">
    <g
       inkscape:groupmode="layer"
       id="layer4"
       inkscape:label="capital.positive"
       style="display:inline">
      <path
         d="m 43.18416,66.070156 c 0.308381,0.140852 1.080933,0.464172 1.716902,0.7192 0.634902,0.255028 1.315687,0.536732 1.51096,0.626365 0.196339,0.08857 0.876057,0.369203 1.512026,0.622097 0.635969,0.252894 1.315687,0.533531 1.512027,0.622097 0.195272,0.08963 0.87499,0.369204 1.510959,0.623164 0.635969,0.252894 1.316754,0.533531 1.512027,0.622097 0.195272,0.08857 0.876057,0.369204 1.512026,0.622097 0.634902,0.253961 1.315687,0.531397 1.51096,0.617829 0.196339,0.0875 1.156695,0.490848 2.134123,0.898466 2.668722,1.109744 3.108351,1.316754 3.110485,1.462942 0.0011,0.07363 -8.200369,0.133382 -18.226482,0.133382 -10.026112,0 -18.229683,-0.06616 -18.229683,-0.148321 0,-0.178199 0.43216,-0.400148 1.956991,-1.007306 0.634902,-0.253961 1.315687,-0.533531 1.510959,-0.623165 0.19634,-0.08857 0.876058,-0.369203 1.512027,-0.622097 0.635969,-0.252893 1.315687,-0.53353 1.512026,-0.622097 0.195273,-0.08963 0.876058,-0.369203 1.51096,-0.623164 0.635969,-0.252893 1.316754,-0.533531 1.512027,-0.622097 0.195272,-0.08857 0.876057,-0.369203 1.512026,-0.622097 0.634902,-0.25396 1.315687,-0.534598 1.51096,-0.625298 0.196339,-0.0907 1.276205,-0.53033 2.400889,-0.978496 1.124683,-0.447098 2.285646,-0.928343 2.579088,-1.068128 0.666913,-0.319052 0.712797,-0.319052 1.395717,-0.0075"
         id="path920"
         style="display:inline;fill:#3c3b6e;fill-opacity:1;stroke-width:1.06706" />
      <path
         id="path904"
         style="display:inline;fill:#3c3b6e;fill-opacity:1;stroke-width:1.06706"
         d="m 30.126953,51.097656 c -2.027284,6.67e-4 -4.078154,0.04655 -5.050781,0.136719 -3.180911,0.294509 -7.012415,0.900463 -8.892578,1.40625 -1.299681,0.349997 -3.838228,1.11092 -4.179688,1.253906 -1.196176,0.499385 -2.2807941,1.032581 -3.3339841,1.638672 L 7.46875,56.224609 v 6.634766 4.632813 l -2.3554688,0.117187 c -3.70804,0.183534 -3.5854991,2.13924 -4.40820308,3.548828 C 0.31773413,71.821916 0,72.451002 0,72.556641 c 0,0.325452 7.7889261,0.254617 8.4238281,-0.07617 0.280637,-0.146188 0.5895069,-0.265625 0.6855469,-0.265625 0.096036,0 0.425994,-0.115008 0.734375,-0.25586 0.308381,-0.139785 1.080829,-0.463722 1.716797,-0.71875 0.634902,-0.255028 1.316447,-0.538383 1.511719,-0.626953 0.196339,-0.08857 0.87575,-0.369973 1.511718,-0.625 0.635969,-0.255028 1.408416,-0.578965 1.716797,-0.71875 0.307314,-0.140852 0.615304,-0.255859 0.683594,-0.255859 0.06829,0 0.37628,-0.115 0.683594,-0.25586 0.308381,-0.139785 1.080829,-0.463722 1.716797,-0.71875 0.635969,-0.255026 1.315379,-0.538383 1.511718,-0.626953 0.195272,-0.08857 0.876818,-0.3682 1.511719,-0.621093 0.635969,-0.253961 1.316447,-0.533417 1.511719,-0.623047 0.195272,-0.08857 0.87575,-0.369972 1.511719,-0.625 0.634901,-0.255028 1.396011,-0.570105 1.689453,-0.699219 2.741282,-1.202579 2.982655,-1.237475 4.269531,-0.636719 0.195273,0.09177 0.87575,0.37406 1.511719,0.626953 0.634902,0.253961 1.314493,0.533417 1.509765,0.623047 0.19634,0.08857 0.87575,0.372631 1.511719,0.63086 0.635969,0.258229 1.396011,0.577735 1.689453,0.708984 0.637036,0.284905 1.321103,0.566313 3.914063,1.615234 1.075599,0.434295 2.116161,0.864379 2.3125,0.955079 0.195273,0.0907 0.873796,0.371037 1.509765,0.625 0.635969,0.252893 1.316447,0.532523 1.511719,0.621093 0.195273,0.08857 0.877703,0.370153 1.513672,0.623047 0.634902,0.253961 1.314494,0.532711 1.509766,0.619141 2.078637,0.92621 1.845741,0.892578 6.335937,0.892578 2.764757,0 4.246094,-0.0632 4.246094,-0.181641 0,-0.09924 -0.392126,-2.742175 -0.908203,-3.394531 -0.861558,-1.616817 -2.010514,-1.257951 -3.705078,-1.324219 -1.537636,-0.06082 -2.928537,-0.161649 -3.091797,-0.224609 0.136287,-0.21288 -0.296875,1.271008 -0.296875,-4.929688 v -6.816406 l -1.289063,-0.708984 c -3.347373,-1.843883 -8.891008,-3.196959 -16.140625,-3.9375 -0.878192,-0.08963 -2.880919,-0.13348 -4.908203,-0.132813 z m -0.197265,2.279297 c 0.235153,-0.0055 0.477993,0.08811 0.691406,0.28125 0.296643,0.2689 0.324365,0.645401 0.322265,4.400391 -0.0032,4.495531 -0.03115,4.623047 -0.976562,4.623047 -0.371337,0 -0.714694,-0.109492 -0.808594,-0.257813 -0.321185,-0.506855 -0.20899,-8.368192 0.125,-8.736328 0.183002,-0.20221 0.411331,-0.305078 0.646485,-0.310547 z m 5.921874,0.341797 c 1.05853,0 1.140626,0.350096 1.140626,4.892578 v 4.015625 l -0.4375,0.4375 c -0.510057,0.510055 -0.91866,0.55233 -1.371094,0.142578 -0.405483,-0.367069 -0.509161,-8.877557 -0.113282,-9.273437 0.117377,-0.117372 0.469668,-0.214844 0.78125,-0.214844 z m -11.839843,0.01367 c 0.221948,0.0053 0.457539,0.10427 0.693359,0.296875 0.37241,0.305179 0.380051,0.403676 0.332031,4.751953 l -0.04883,4.439453 -0.46875,0.261719 c -0.420423,0.235816 -0.516373,0.232151 -0.933593,-0.04102 l -0.466797,-0.304687 v -4.429688 c 0,-3.789136 0.04223,-4.469962 0.28125,-4.708984 0.182467,-0.183004 0.389379,-0.27096 0.611328,-0.265625 z m -5.898438,1.240234 c 0.268233,-0.0076 0.551012,0.04615 0.738281,0.164063 0.412951,0.260363 0.497099,8.564879 0.09375,9.18164 -0.306246,0.467373 -1.110197,0.583161 -1.480468,0.212891 -0.304112,-0.304113 -0.304112,-9.049403 0,-9.353516 0.12698,-0.12698 0.380205,-0.197475 0.648437,-0.205078 z m 23.634766,0 c 0.286639,-0.01294 0.569713,0.05409 0.720703,0.205078 0.41402,0.41402 0.293651,9.157663 -0.128906,9.382813 -0.492982,0.264632 -0.913638,0.228884 -1.28711,-0.109375 -0.460967,-0.416154 -0.503577,-8.752283 -0.04687,-9.208984 0.165395,-0.165397 0.455548,-0.256593 0.742188,-0.269532 z m -29.125,2.291016 c 0.636986,0.08853 0.714844,1.182773 0.714844,4.664062 0,4.225565 -0.0442,4.417969 -1.042969,4.417969 -0.887798,0 -0.912107,-0.120122 -0.91211,-4.576172 0,-4.136999 0.0013,-4.150487 0.400391,-4.310547 0.354531,-0.142452 0.627515,-0.224823 0.839844,-0.195312 z m 35.019531,0.0293 c 0.19874,-7.96e-4 0.394381,0.07628 0.597656,0.230469 0.391609,0.297709 0.482866,8.225233 0.09766,8.609374 -0.253961,0.253959 -1.01218,0.274883 -1.386719,0.03906 -0.463107,-0.292375 -0.390315,-8.300051 0.07813,-8.642578 0.212879,-0.156307 0.414541,-0.235532 0.613281,-0.236328 z"
         transform="translate(12.53281,0.89174985)"
         sodipodi:nodetypes="scccccccccscscccscscsccccccccsccccsccsscccscccssscsccssscscsssccccccscsscssssssscsssssccssccccsccsc" />
      <path
         d="m 48.902544,39.012671 c 0.586884,0.14512 1.46721,0.320118 1.955924,0.389477 0.488714,0.06829 0.968892,0.186736 1.067062,0.263564 0.09817,0.07576 0.498318,0.192072 0.888862,0.258229 2.735947,0.464172 7.479036,2.758355 8.696554,4.205291 0.449233,0.533531 0.463105,0.618896 0.463105,3.015516 0,2.814909 0.01601,2.787166 -1.367974,2.328329 -0.567676,-0.18887 -1.513093,-0.479111 -2.099977,-0.644505 -0.586884,-0.166462 -1.165232,-0.329722 -1.283676,-0.364935 -0.152589,-0.04375 -0.232619,-0.718133 -0.266765,-2.248299 l -0.05015,-2.18641 -0.666913,-0.05549 -0.666914,-0.05442 -0.0032,1.833212 c -0.0032,2.357139 0.05122,2.290981 -1.658214,2.022082 -1.729707,-0.272101 -1.711567,-0.24329 -1.714769,-2.891738 -0.0032,-2.38595 -0.147254,-2.713538 -1.014775,-2.317658 -0.398014,0.181401 -0.410819,0.259296 -0.410819,2.407292 v 2.220555 l -1.328492,-0.100304 c -1.786261,-0.135516 -1.694494,0.0085 -1.697695,-2.674056 -0.0032,-2.664454 -0.06082,-2.839452 -0.904869,-2.759422 l -0.603957,0.05762 -0.05015,2.453175 c -0.05655,2.809574 0.05762,2.653783 -1.817206,2.475584 l -1.333832,-0.126977 -0.08963,-2.578021 -0.08857,-2.579088 h -0.622097 -0.623164 l -0.08857,2.575887 -0.08857,2.575887 -0.71173,0.125913 c -0.391612,0.06936 -1.08947,0.130182 -1.551508,0.136584 l -0.839777,0.0096 -0.04908,-2.534272 -0.04908,-2.534272 -0.514324,-0.05869 c -0.743742,-0.0843 -0.814168,0.153657 -0.817369,2.749818 -0.0032,2.743416 0.03948,2.678325 -1.780926,2.761556 l -1.333827,0.06082 -0.04909,-2.228025 c -0.05442,-2.441437 -0.273168,-2.931218 -1.110812,-2.483052 -0.323319,0.173931 -0.35213,0.379874 -0.35213,2.576954 0,2.795702 -0.02027,2.819177 -2.667654,2.994175 l -0.443898,0.02881 -0.08963,-2.044491 -0.08857,-2.045557 h -0.71173 -0.710663 v 2.22269 c 0,2.489455 -0.03415,2.564149 -1.245261,2.764757 -0.391612,0.06509 -0.951819,0.224083 -1.245261,0.355331 -1.028648,0.456703 -1.928181,0.625299 -2.078636,0.388411 -0.211279,-0.331856 -0.171797,-5.032264 0.04588,-5.500704 0.415087,-0.89313 4.171145,-3.072071 6.212434,-3.604534 0.244357,-0.06402 0.605024,-0.189937 0.800296,-0.281705 0.666914,-0.308381 5.166713,-1.316754 7.114101,-1.593123 1.752116,-0.248625 10.48815,-0.07576 11.73768,0.23262"
         id="path900"
         style="display:inline;fill:#3c3b6e;fill-opacity:1;stroke-width:1.06706" />
      <path
         d="m 43.477602,19.396874 c 3.730448,0.724535 5.913656,2.091441 8.453263,5.290492 1.593123,2.006076 3.292953,5.166713 3.995079,7.425683 0.212346,0.685054 0.458837,1.381845 0.546336,1.548307 0.835509,1.590989 0.434294,1.929247 -1.556843,1.311419 -6.138807,-1.904706 -10.766653,-2.396621 -16.845704,-1.791597 -1.475747,0.146187 -2.963231,0.345728 -3.305758,0.440696 -0.342527,0.09604 -1.475746,0.372405 -2.518266,0.614628 -1.042519,0.24329 -2.380614,0.603957 -2.973901,0.803498 -1.632604,0.550603 -1.690226,0.530329 -1.547239,-0.541001 0.06509,-0.498318 0.184601,-1.038251 0.264631,-1.200444 0.07896,-0.163261 0.368136,-0.976362 0.642371,-1.807603 1.965528,-5.965942 6.179355,-10.612996 10.707965,-11.811307 1.866291,-0.492982 2.747684,-0.553805 4.138066,-0.282771"
         id="path878"
         style="display:inline;fill:#3c3b6e;fill-opacity:1;stroke-width:1.06706" />
      <path
         d="m 44.668443,11.233851 0.76615,0.37027 v 3.422068 c 0,3.649351 -0.02027,3.764594 -0.601823,3.43167 -0.247558,-0.142986 -1.24206,-0.215546 -2.910944,-0.212345 l -2.534272,0.0032 v -3.147832 c 0,-3.35911 0.01281,-3.414598 0.947551,-3.916117 1.095872,-0.589018 3.0614,-0.56661 4.333338,0.04908"
         id="path876"
         style="display:inline;fill:#3c3b6e;fill-opacity:1;stroke-width:1.06706" />
      <path
         d="m 42.718921,1.623893 c 0.292375,1.0115745 0.605024,3.8104775 0.708529,6.346883 l 0.0811,2.000741 h -1.251663 -1.251663 l 0.08323,-0.844046 c 0.04588,-0.465239 0.163261,-2.085038 0.260363,-3.599199 0.260363,-4.0580359 0.844046,-5.7215852 1.370108,-3.904379"
         id="path874"
         style="display:inline;fill:#3c3b6e;fill-opacity:1;stroke-width:1.06706" />
      <path
         d="m 45.29054,34.156472 c 6.637124,0.485514 13.605037,2.867195 16.764607,5.730122 0.878192,0.796028 0.88246,0.804565 0.953954,2.069033 0.09497,1.679555 -0.139786,1.777725 -1.539771,0.644505 -4.297057,-3.477554 -15.184289,-6.076917 -21.903577,-5.227535 -9.12978,1.153493 -13.730951,2.666587 -16.973752,5.583934 -0.511122,0.459904 -0.738406,0.569811 -0.841911,0.40655 -0.407618,-0.642371 0.104572,-2.951492 0.782156,-3.524505 2.615368,-2.21522 7.16532,-4.079377 12.587061,-5.16031 3.094479,-0.616762 6.495205,-0.790693 10.171233,-0.521794"
         id="path898"
         style="display:inline;fill:#3c3b6e;fill-opacity:1;stroke-width:1.06706" />
      <path
         d="m 48.287916,48.108305 c 1.52163,0.139785 3.122223,0.337192 3.557584,0.438563 0.435361,0.10137 1.912175,0.39588 3.281215,0.654108 4.363216,0.824839 9.433893,2.741282 11.167869,4.221297 0.857917,0.732004 1.218584,3.144631 0.470574,3.144631 -0.208077,0 -1.293279,-0.733071 -1.382912,-0.933679 -0.03201,-0.07363 -0.139785,-0.133383 -0.239022,-0.133383 -0.09924,0 -0.392679,-0.149388 -0.651975,-0.330789 -0.260363,-0.182468 -1.353034,-0.673316 -2.428632,-1.092671 -1.075599,-0.418288 -2.115984,-0.823772 -2.312323,-0.899533 -0.195272,-0.07576 -1.276206,-0.351064 -2.400889,-0.61036 -1.124683,-0.259296 -2.325128,-0.539933 -2.667655,-0.623164 -3.679229,-0.890996 -13.663726,-1.398918 -17.873284,-0.909136 -7.689248,0.894197 -13.392693,2.496924 -16.799821,4.720681 -1.158829,0.756547 -1.139622,0.753346 -1.399985,0.1814 -0.516458,-1.132152 -0.07576,-2.121318 1.351967,-3.04326 1.099074,-0.709596 4.240504,-2.192812 4.648121,-2.193879 0.136584,-0.0011 0.696792,-0.153657 1.244194,-0.34146 1.821475,-0.62103 2.666588,-0.821637 6.865476,-1.628336 4.228766,-0.812034 10.690892,-1.070263 15.569498,-0.62103"
         id="path902"
         style="display:inline;fill:#3c3b6e;fill-opacity:1;stroke-width:1.06706" />
    </g>
    <g
       inkscape:groupmode="layer"
       id="layer3"
       inkscape:label="capital.negative" />
  </g>
</svg>
